Coordinates
version=1
nRows=17
nColumns=40
inDegrees=yes

Units are S.I. units (second, meters, Newtons, ...)
If the header above contains a line with 'inDegrees', this indicates whether rotational values are in degrees (yes) or radians (no).

endheader
time	pelvis_tilt	pelvis_list	pelvis_rotation	pelvis_tx	pelvis_ty	pelvis_tz	hip_flexion_r	hip_adduction_r	hip_rotation_r	knee_angle_r	knee_angle_r_beta	ankle_angle_r	subtalar_angle_r	mtp_angle_r	hip_flexion_l	hip_adduction_l	hip_rotation_l	knee_angle_l	knee_angle_l_beta	ankle_angle_l	subtalar_angle_l	mtp_angle_l	lumbar_extension	lumbar_bending	lumbar_rotation	arm_flex_r	arm_add_r	arm_rot_r	elbow_flex_r	pro_sup_r	wrist_flex_r	wrist_dev_r	arm_flex_l	arm_add_l	arm_rot_l	elbow_flex_l	pro_sup_l	wrist_flex_l	wrist_dev_l
     17.09000000	     30.95094765	    -13.69187233	    179.21242083	      0.37384199	      0.63986628	     -0.59875410	    102.52444296	     -7.22216433	     15.27956366	     92.55807019	      1.61544307	     24.02830525	      0.00000000	      0.00000000	     94.02553518	     -6.38561189	    -11.44223995	     90.02321220	      1.57120146	     26.78718952	      0.00000000	      0.00000000	    -36.42129873	    -11.18755591	     -8.03448841	     53.40362390	    -11.62428432	     40.19294920	      9.45171052	      5.90346527	      0.00000000	      0.00000000	     61.23122409	    -18.00596106	     40.32600477	     15.53468533	     87.59513940	      0.00000000	      0.00000000
     17.09500000	     30.98330094	    -13.66126316	    179.14889268	      0.37348718	      0.64009980	     -0.59883125	    102.47549420	     -7.12041667	     15.28103320	     92.51878321	      1.61475739	     24.03214102	      0.00000000	      0.00000000	     94.00664713	     -6.51932760	    -11.49789172	     90.02907032	      1.57130370	     26.80960604	      0.00000000	      0.00000000	    -36.41976692	    -11.19373706	     -7.98464777	     53.42791913	    -11.62380990	     40.18685855	      9.45851296	      5.90436018	      0.00000000	      0.00000000	     61.22063306	    -18.00854133	     40.31951808	     15.52860392	     87.59579846	      0.00000000	      0.00000000
     17.10000000	     31.12629859	    -13.69114793	    179.30448766	      0.37321363	      0.64035877	     -0.59831619	    102.58490589	     -7.36839802	     15.24575146	     92.45981660	      1.61372823	     24.13517680	      0.00000000	      0.00000000	     94.08735732	     -6.28510298	    -11.48516042	     89.91864076	      1.56937634	     26.78251790	      0.00000000	      0.00000000	    -36.34950843	    -11.11397497	     -8.10902628	     53.42361496	    -11.63144240	     40.12960152	      9.47351771	      5.91199183	      0.00000000	      0.00000000	     61.20896005	    -17.99508287	     40.34058587	     15.53495461	     87.60204101	      0.00000000	      0.00000000
     17.10500000	     31.12390266	    -13.68675526	    179.15471482	      0.37290763	      0.64051784	     -0.59875283	    102.51682700	     -7.16530856	     15.23187883	     92.43118016	      1.61322843	     24.11125912	      0.00000000	      0.00000000	     94.04247153	     -6.47703267	    -11.47335829	     89.94751916	      1.56988036	     26.81271282	      0.00000000	      0.00000000	    -36.37260542	    -11.22247995	     -7.99658883	     53.40332495	    -11.60962991	     40.13194924	      9.46415159	      5.91087271	      0.00000000	      0.00000000	     61.24633618	    -18.00506647	     40.32671545	     15.54276867	     87.59923958	      0.00000000	      0.00000000
     17.11000000	     31.17396177	    -13.65510216	    179.11353771	      0.37253904	      0.64073195	     -0.59876885	    102.48293000	     -7.07575030	     15.25601275	     92.39253879	      1.61255401	     24.11103139	      0.00000000	      0.00000000	     94.02868439	     -6.58820170	    -11.53682875	     89.93053939	      1.56958401	     26.83927696	      0.00000000	      0.00000000	    -36.35063776	    -11.20913295	     -7.94700508	     53.39209331	    -11.60190046	     40.12228915	      9.46418341	      5.91114890	      0.00000000	      0.00000000	     61.22335524	    -17.98971355	     40.33293199	     15.52205895	     87.60116720	      0.00000000	      0.00000000
     17.11500000	     31.34714494	    -13.71792650	    179.31375331	      0.37232028	      0.64083496	     -0.59806209	    102.66492440	     -7.35896037	     15.28455392	     92.35531290	      1.61190429	     24.19418969	      0.00000000	      0.00000000	     94.15038722	     -6.28088829	    -11.53314539	     89.80885415	      1.56746020	     26.82800722	      0.00000000	      0.00000000	    -36.24076893	    -11.13421177	     -8.09098266	     53.39833199	    -11.67136409	     40.02661549	      9.46808728	      5.90806034	      0.00000000	      0.00000000	     61.21789410	    -17.91000905	     40.38965445	     15.46041912	     87.60955140	      0.00000000	      0.00000000
     17.12000000	     31.35001464	    -13.71955927	    179.16520516	      0.37200711	      0.64100213	     -0.59855285	    102.59628791	     -7.16104611	     15.26275404	     92.32537552	      1.61138179	     24.16825423	      0.00000000	      0.00000000	     94.10870802	     -6.47477493	    -11.52265961	     89.83847664	      1.56797721	     26.85976702	      0.00000000	      0.00000000	    -36.26214243	    -11.25215440	     -7.96295365	     53.36999416	    -11.64257938	     40.02850241	      9.46359846	      5.90757246	      0.00000000	      0.00000000	     61.26540421	    -17.92823160	     40.37592753	     15.47445197	     87.60686260	      0.00000000	      0.00000000
     17.12500000	     31.50443425	    -13.74748889	    179.33563196	      0.37175898	      0.64100716	     -0.59795707	    102.74279280	     -7.36085079	     15.31215790	     92.31688753	      1.61123364	     24.21624136	      0.00000000	      0.00000000	     94.22640048	     -6.25758054	    -11.55152332	     89.75589778	      1.56653594	     26.85135609	      0.00000000	      0.00000000	    -36.14769407	    -11.16451027	     -8.06984307	     53.35401299	    -11.69665254	     39.93628066	      9.49021995	      5.90974961	      0.00000000	      0.00000000	     61.21721918	    -17.86843884	     40.39303892	     15.43235270	     87.60193255	      0.00000000	      0.00000000
     17.13000000	     31.50577941	    -13.74716066	    179.17500565	      0.37143877	      0.64118685	     -0.59839487	    102.67726005	     -7.16354986	     15.28638727	     92.27536181	      1.61050888	     24.19038609	      0.00000000	      0.00000000	     94.17755567	     -6.45950088	    -11.54190211	     89.79133926	      1.56715451	     26.88679879	      0.00000000	      0.00000000	    -36.17115148	    -11.29308832	     -7.93587435	     53.33093589	    -11.68141498	     39.93885011	      9.47950097	      5.90820641	      0.00000000	      0.00000000	     61.26205082	    -17.88663538	     40.37685019	     15.45837604	     87.59942298	      0.00000000	      0.00000000
     17.13500000	     31.64393790	    -13.76277245	    179.32628222	      0.37118396	      0.64126112	     -0.59782395	    102.79925384	     -7.36049846	     15.31690545	     92.25064840	      1.61007755	     24.23048747	      0.00000000	      0.00000000	     94.27171136	     -6.27385761	    -11.56872267	     89.70942195	      1.56572478	     26.89592841	      0.00000000	      0.00000000	    -36.07866875	    -11.20545022	     -8.02500624	     53.33500583	    -11.73642534	     39.86154404	      9.49054325	      5.90253877	      0.00000000	      0.00000000	     61.20933742	    -17.84456032	     40.39195667	     15.46978542	     87.60395454	      0.00000000	      0.00000000
     17.14000000	     31.64184395	    -13.75514964	    179.17102280	      0.37090877	      0.64141785	     -0.59825604	    102.73443110	     -7.15722114	     15.29043768	     92.21677781	      1.60948640	     24.20385996	      0.00000000	      0.00000000	     94.22980897	     -6.47017843	    -11.56155219	     89.74065117	      1.56626984	     26.92776565	      0.00000000	      0.00000000	    -36.10646034	    -11.32419758	     -7.89980778	     53.31149538	    -11.71111527	     39.86735548	      9.48241907	      5.90129890	      0.00000000	      0.00000000	     61.25268591	    -17.86102500	     40.37497942	     15.49142600	     87.60135647	      0.00000000	      0.00000000
     17.14500000	     31.74596407	    -13.74825830	    179.28181906	      0.37065440	      0.64152165	     -0.59780160	    102.80627380	     -7.29579464	     15.30987993	     92.18896939	      1.60900105	     24.23072300	      0.00000000	      0.00000000	     94.29956834	     -6.35756693	    -11.60025920	     89.68668698	      1.56532798	     26.92810504	      0.00000000	      0.00000000	    -36.04108696	    -11.23346690	     -7.96672456	     53.33565578	    -11.74483946	     39.84257097	      9.47753766	      5.89901811	      0.00000000	      0.00000000	     61.20386619	    -17.81956411	     40.37901664	     15.46912730	     87.60355555	      0.00000000	      0.00000000
     17.15000000	     31.74102534	    -13.75706374	    179.12758519	      0.37038347	      0.64168191	     -0.59825455	    102.75191307	     -7.11643197	     15.27163462	     92.15813644	      1.60846291	     24.20888516	      0.00000000	      0.00000000	     94.25766409	     -6.53037086	    -11.56718848	     89.70974468	      1.56573042	     26.95251725	      0.00000000	      0.00000000	    -36.06988542	    -11.36903691	     -7.85308788	     53.31289552	    -11.72449205	     39.84975503	      9.46637288	      5.89668612	      0.00000000	      0.00000000	     61.24832663	    -17.84029508	     40.35821113	     15.49029329	     87.60106878	      0.00000000	      0.00000000
     17.15500000	     31.88178279	    -13.75500648	    179.33750659	      0.37015038	      0.64183028	     -0.59752732	    102.88148349	     -7.38785141	     15.28855191	     92.14035286	      1.60815253	     24.23392845	      0.00000000	      0.00000000	     94.36385951	     -6.22046413	    -11.52031601	     89.59589649	      1.56374339	     26.92186578	      0.00000000	      0.00000000	    -35.98382766	    -11.22415907	     -8.02982969	     53.31590494	    -11.72209211	     39.84074087	      9.46633628	      5.88379594	      0.00000000	      0.00000000	     61.17539700	    -17.84993732	     40.33357342	     15.51571828	     87.60798833	      0.00000000	      0.00000000
     17.16000000	     31.87445085	    -13.75572567	    179.17447204	      0.36990846	      0.64199613	     -0.59802438	    102.81296255	     -7.18723239	     15.25074960	     92.09828582	      1.60741832	     24.20667077	      0.00000000	      0.00000000	     94.31624363	     -6.43145469	    -11.51312072	     89.63358882	      1.56440125	     26.95530936	      0.00000000	      0.00000000	    -36.01115242	    -11.35072498	     -7.89895008	     53.30090458	    -11.70231483	     39.85358210	      9.45407970	      5.88126254	      0.00000000	      0.00000000	     61.21816782	    -17.86401611	     40.31107585	     15.53983019	     87.60496746	      0.00000000	      0.00000000
     17.16500000	     31.99030661	    -13.74452288	    179.31393518	      0.36971971	      0.64216215	     -0.59743388	    102.91008315	     -7.39895161	     15.21908882	     92.05647352	      1.60668856	     24.23264462	      0.00000000	      0.00000000	     94.39928546	     -6.24046271	    -11.51654020	     89.54744026	      1.56289767	     26.93786110	      0.00000000	      0.00000000	    -35.94019529	    -11.22652445	     -8.00475529	     53.35312369	    -11.73098434	     39.85451585	      9.43799908	      5.86932383	      0.00000000	      0.00000000	     61.15562188	    -17.83509735	     40.26631528	     15.53158720	     87.60484229	      0.00000000	      0.00000000
     17.17000000	     31.98494169	    -13.73339980	    179.16054195	      0.36948550	      0.64233366	     -0.59788618	    102.83979470	     -7.20157110	     15.19484651	     92.01948409	      1.60604297	     24.20521367	      0.00000000	      0.00000000	     94.35626228	     -6.43815351	    -11.49738793	     89.57684322	      1.56341085	     26.96956730	      0.00000000	      0.00000000	    -35.96800808	    -11.34322932	     -7.87828276	     53.33899033	    -11.71158443	     39.86702501	      9.42800496	      5.86659172	      0.00000000	      0.00000000	     61.20161343	    -17.85056669	     40.24662877	     15.54874570	     87.60188848	      0.00000000	      0.00000000
